<svg xmlns="http://www.w3.org/2000/svg" viewBox="0 0 96 96"><rect width="96" height="96" rx="24" fill="#007fff"/><ellipse cx="48" cy="76" rx="32" ry="8" fill="#06315f" opacity=".35"/><path d="M18 70c11-14 52-14 66 0-9 12-57 12-66 0Z" fill="#8b5a2b"/><circle cx="48" cy="56" r="13" fill="#e8edf6"/><path d="M41 56h14M48 48v17" stroke="#788497" stroke-width="4" stroke-linecap="round"/><path d="M64 15 42 55" stroke="#6b4423" stroke-width="7" stroke-linecap="round"/><path d="M36 57c8-5 18 0 19 9-9 7-20 4-22-5 0-2 1-3 3-4Z" fill="#b7c2d1" stroke="#607086" stroke-width="3"/><path d="M60 13c4-7 15-3 12 5-3 7-15 4-12-5Z" fill="#ffcf48" stroke="#8a5d00" stroke-width="3"/></svg>